<?xml version="1.0" encoding="UTF-8" standalone="no"?>
<!DOCTYPE svg PUBLIC "-//W3C//DTD SVG 1.1//EN"
 "http://www.w3.org/Graphics/SVG/1.1/DTD/svg11.dtd">
<!-- Generated by graphviz version 2.36.0 (20140111.2315)
 -->
<!-- Title: G Pages: 1 -->
<svg width="678pt" height="552pt"
 viewBox="0.00 0.00 678.00 552.00" xmlns="http://www.w3.org/2000/svg" xmlns:xlink="http://www.w3.org/1999/xlink">
<g id="graph0" class="graph" transform="scale(1 1) rotate(0) translate(4 548)">
<title>G</title>
<polygon fill="white" stroke="none" points="-4,4 -4,-548 674,-548 674,4 -4,4"/>
<!-- initialise_paging -->
<g id="node1" class="node"><title>initialise_paging</title>
<polygon fill="Wheat" stroke="black" points="124,-290 7.10543e-15,-290 7.10543e-15,-254 124,-254 124,-290"/>
<text text-anchor="middle" x="62" y="-268.2" font-family="Times,serif" font-size="16.00" fill="blue">initialise_paging</text>
</g>
<!-- printf -->
<g id="node2" class="node"><title>printf</title>
<polygon fill="Wheat" stroke="black" points="453,-240 399,-240 399,-204 453,-204 453,-240"/>
<text text-anchor="middle" x="426" y="-218.2" font-family="Times,serif" font-size="16.00" fill="blue">printf</text>
</g>
<!-- initialise_paging&#45;&gt;printf -->
<g id="edge1" class="edge"><title>initialise_paging&#45;&gt;printf</title>
<path fill="none" stroke="black" d="M121.07,-253.957C133.796,-250.531 147.271,-247.303 160,-245 240.818,-230.375 337.244,-224.97 388.585,-223.033"/>
<polygon fill="black" stroke="black" points="388.964,-226.522 398.834,-222.67 388.717,-219.526 388.964,-226.522"/>
</g>
<!-- kmalloc -->
<g id="node3" class="node"><title>kmalloc</title>
<polygon fill="Wheat" stroke="black" points="286,-490 218,-490 218,-454 286,-454 286,-490"/>
<text text-anchor="middle" x="252" y="-468.2" font-family="Times,serif" font-size="16.00" fill="blue">kmalloc</text>
</g>
<!-- initialise_paging&#45;&gt;kmalloc -->
<g id="edge2" class="edge"><title>initialise_paging&#45;&gt;kmalloc</title>
<path fill="none" stroke="black" d="M68.7345,-290.24C80.4019,-324.468 110.108,-398.599 160,-440 173.661,-451.336 191.611,-458.771 207.955,-463.591"/>
<polygon fill="black" stroke="black" points="207.306,-467.041 217.872,-466.267 209.129,-460.283 207.306,-467.041"/>
</g>
<!-- INDEX_FROM_BIT -->
<g id="node4" class="node"><title>INDEX_FROM_BIT</title>
<polygon fill="Wheat" stroke="black" points="665,-348 513,-348 513,-312 665,-312 665,-348"/>
<text text-anchor="middle" x="589" y="-326.2" font-family="Times,serif" font-size="16.00" fill="blue">INDEX_FROM_BIT</text>
</g>
<!-- initialise_paging&#45;&gt;INDEX_FROM_BIT -->
<g id="edge3" class="edge"><title>initialise_paging&#45;&gt;INDEX_FROM_BIT</title>
<path fill="none" stroke="black" d="M69.677,-290.274C82.0394,-321.04 111.722,-382.24 160,-407 290.401,-473.876 469.12,-395.067 547.913,-353.052"/>
<polygon fill="black" stroke="black" points="549.89,-355.962 557.017,-348.123 546.557,-349.806 549.89,-355.962"/>
</g>
<!-- memory_set -->
<g id="node5" class="node"><title>memory_set</title>
<polygon fill="Wheat" stroke="black" points="300,-398 204,-398 204,-362 300,-362 300,-398"/>
<text text-anchor="middle" x="252" y="-376.2" font-family="Times,serif" font-size="16.00" fill="blue">memory_set</text>
</g>
<!-- initialise_paging&#45;&gt;memory_set -->
<g id="edge4" class="edge"><title>initialise_paging&#45;&gt;memory_set</title>
<path fill="none" stroke="black" d="M80.2982,-290.29C98.5287,-308.576 128.868,-336.311 160,-353 170.553,-358.657 182.445,-363.278 194.067,-366.995"/>
<polygon fill="black" stroke="black" points="193.146,-370.373 203.731,-369.908 195.167,-363.671 193.146,-370.373"/>
</g>
<!-- kmalloc_a -->
<g id="node6" class="node"><title>kmalloc_a</title>
<polygon fill="Wheat" stroke="black" points="293.5,-344 210.5,-344 210.5,-308 293.5,-308 293.5,-344"/>
<text text-anchor="middle" x="252" y="-322.2" font-family="Times,serif" font-size="16.00" fill="blue">kmalloc_a</text>
</g>
<!-- initialise_paging&#45;&gt;kmalloc_a -->
<g id="edge5" class="edge"><title>initialise_paging&#45;&gt;kmalloc_a</title>
<path fill="none" stroke="black" d="M124.038,-289.532C148.805,-296.646 177.068,-304.764 200.63,-311.532"/>
<polygon fill="black" stroke="black" points="199.839,-314.946 210.417,-314.343 201.771,-308.218 199.839,-314.946"/>
</g>
<!-- get_page  -->
<g id="node7" class="node"><title>get_page </title>
<polygon fill="Wheat" stroke="black" points="291,-544 213,-544 213,-508 291,-508 291,-544"/>
<text text-anchor="middle" x="252" y="-522.2" font-family="Times,serif" font-size="16.00" fill="blue">get_page </text>
</g>
<!-- initialise_paging&#45;&gt;get_page  -->
<g id="edge6" class="edge"><title>initialise_paging&#45;&gt;get_page </title>
<path fill="none" stroke="black" d="M65.4478,-290.035C72.2208,-332.837 95.1967,-441.274 160,-499 171.911,-509.61 187.825,-516.057 203.012,-519.972"/>
<polygon fill="black" stroke="black" points="202.311,-523.401 212.837,-522.197 203.857,-516.574 202.311,-523.401"/>
</g>
<!-- alloc_frame  -->
<g id="node9" class="node"><title>alloc_frame </title>
<polygon fill="Wheat" stroke="black" points="300,-290 204,-290 204,-254 300,-254 300,-290"/>
<text text-anchor="middle" x="252" y="-268.2" font-family="Times,serif" font-size="16.00" fill="blue">alloc_frame </text>
</g>
<!-- initialise_paging&#45;&gt;alloc_frame  -->
<g id="edge8" class="edge"><title>initialise_paging&#45;&gt;alloc_frame </title>
<path fill="none" stroke="black" d="M124.038,-272C146.437,-272 171.695,-272 193.75,-272"/>
<polygon fill="black" stroke="black" points="193.963,-275.5 203.963,-272 193.963,-268.5 193.963,-275.5"/>
</g>
<!-- register_interrupt_handler -->
<g id="node13" class="node"><title>register_interrupt_handler</title>
<polygon fill="Wheat" stroke="black" points="344,-198 160,-198 160,-162 344,-162 344,-198"/>
<text text-anchor="middle" x="252" y="-176.2" font-family="Times,serif" font-size="16.00" fill="blue">register_interrupt_handler</text>
</g>
<!-- initialise_paging&#45;&gt;register_interrupt_handler -->
<g id="edge15" class="edge"><title>initialise_paging&#45;&gt;register_interrupt_handler</title>
<path fill="none" stroke="black" d="M88.8878,-253.846C107.944,-241.023 134.812,-224.045 160,-212 167.601,-208.365 175.73,-204.923 183.885,-201.738"/>
<polygon fill="black" stroke="black" points="185.326,-204.935 193.44,-198.122 182.848,-198.388 185.326,-204.935"/>
</g>
<!-- page_fault  -->
<g id="node14" class="node"><title>page_fault </title>
<polygon fill="Wheat" stroke="black" points="296,-144 208,-144 208,-108 296,-108 296,-144"/>
<text text-anchor="middle" x="252" y="-122.2" font-family="Times,serif" font-size="16.00" fill="blue">page_fault </text>
</g>
<!-- initialise_paging&#45;&gt;page_fault  -->
<g id="edge16" class="edge"><title>initialise_paging&#45;&gt;page_fault </title>
<path fill="none" stroke="black" d="M73.0141,-253.796C88.3374,-227.625 120.072,-179.599 160,-153 171.366,-145.428 184.91,-139.929 198.031,-135.954"/>
<polygon fill="black" stroke="black" points="199.239,-139.251 207.938,-133.203 197.366,-132.506 199.239,-139.251"/>
</g>
<!-- switch_page_directory  -->
<g id="node17" class="node"><title>switch_page_directory </title>
<polygon fill="Wheat" stroke="black" points="335,-90 169,-90 169,-54 335,-54 335,-90"/>
<text text-anchor="middle" x="252" y="-68.2" font-family="Times,serif" font-size="16.00" fill="blue">switch_page_directory </text>
</g>
<!-- initialise_paging&#45;&gt;switch_page_directory  -->
<g id="edge20" class="edge"><title>initialise_paging&#45;&gt;switch_page_directory </title>
<path fill="none" stroke="black" d="M68.1292,-253.81C79.0155,-218.548 107.81,-140.697 160,-99 161.593,-97.7271 163.245,-96.5141 164.946,-95.3583"/>
<polygon fill="black" stroke="black" points="167.039,-98.1845 173.818,-90.0424 163.441,-92.1798 167.039,-98.1845"/>
</g>
<!-- create_heap -->
<g id="node18" class="node"><title>create_heap</title>
<polygon fill="Wheat" stroke="black" points="298,-36 206,-36 206,-0 298,-0 298,-36"/>
<text text-anchor="middle" x="252" y="-14.2" font-family="Times,serif" font-size="16.00" fill="blue">create_heap</text>
</g>
<!-- initialise_paging&#45;&gt;create_heap -->
<g id="edge21" class="edge"><title>initialise_paging&#45;&gt;create_heap</title>
<path fill="none" stroke="black" d="M65.4478,-253.965C72.2208,-211.163 95.1967,-102.726 160,-45 170.1,-36.0032 183.078,-30 196.05,-25.9956"/>
<polygon fill="black" stroke="black" points="197.193,-29.3119 205.921,-23.3065 195.353,-22.558 197.193,-29.3119"/>
</g>
<!-- kmalloc_ap -->
<g id="node8" class="node"><title>kmalloc_ap</title>
<polygon fill="Wheat" stroke="black" points="472,-544 380,-544 380,-508 472,-508 472,-544"/>
<text text-anchor="middle" x="426" y="-522.2" font-family="Times,serif" font-size="16.00" fill="blue">kmalloc_ap</text>
</g>
<!-- get_page &#45;&gt;kmalloc_ap -->
<g id="edge7" class="edge"><title>get_page &#45;&gt;kmalloc_ap</title>
<path fill="none" stroke="black" d="M291.172,-526C314.223,-526 343.996,-526 369.605,-526"/>
<polygon fill="black" stroke="black" points="369.925,-529.5 379.925,-526 369.925,-522.5 369.925,-529.5"/>
</g>
<!-- alloc_frame &#45;&gt;printf -->
<g id="edge11" class="edge"><title>alloc_frame &#45;&gt;printf</title>
<path fill="none" stroke="black" d="M300.455,-258.205C328.37,-250.09 363.117,-239.989 388.81,-232.52"/>
<polygon fill="black" stroke="black" points="389.901,-235.848 398.527,-229.696 387.947,-229.126 389.901,-235.848"/>
</g>
<!-- first_frame  -->
<g id="node10" class="node"><title>first_frame </title>
<polygon fill="Wheat" stroke="black" points="471.5,-348 380.5,-348 380.5,-312 471.5,-312 471.5,-348"/>
<text text-anchor="middle" x="426" y="-326.2" font-family="Times,serif" font-size="16.00" fill="blue">first_frame </text>
</g>
<!-- alloc_frame &#45;&gt;first_frame  -->
<g id="edge9" class="edge"><title>alloc_frame &#45;&gt;first_frame </title>
<path fill="none" stroke="black" d="M300.449,-285.326C314.537,-289.485 329.954,-294.236 344,-299 352.692,-301.948 361.836,-305.249 370.725,-308.569"/>
<polygon fill="black" stroke="black" points="369.646,-311.902 380.237,-312.162 372.12,-305.354 369.646,-311.902"/>
</g>
<!-- set_frame  -->
<g id="node11" class="node"><title>set_frame </title>
<polygon fill="Wheat" stroke="black" points="467.5,-294 384.5,-294 384.5,-258 467.5,-258 467.5,-294"/>
<text text-anchor="middle" x="426" y="-272.2" font-family="Times,serif" font-size="16.00" fill="blue">set_frame </text>
</g>
<!-- alloc_frame &#45;&gt;set_frame  -->
<g id="edge12" class="edge"><title>alloc_frame &#45;&gt;set_frame </title>
<path fill="none" stroke="black" d="M300.455,-273.104C323.409,-273.637 350.981,-274.279 374.342,-274.822"/>
<polygon fill="black" stroke="black" points="374.329,-278.322 384.408,-275.056 374.492,-271.324 374.329,-278.322"/>
</g>
<!-- first_frame &#45;&gt;INDEX_FROM_BIT -->
<g id="edge10" class="edge"><title>first_frame &#45;&gt;INDEX_FROM_BIT</title>
<path fill="none" stroke="black" d="M471.847,-330C481.507,-330 492.026,-330 502.657,-330"/>
<polygon fill="black" stroke="black" points="502.86,-333.5 512.86,-330 502.86,-326.5 502.86,-333.5"/>
</g>
<!-- set_frame &#45;&gt;INDEX_FROM_BIT -->
<g id="edge13" class="edge"><title>set_frame &#45;&gt;INDEX_FROM_BIT</title>
<path fill="none" stroke="black" d="M467.627,-289.626C484.92,-295.427 505.497,-302.328 524.703,-308.77"/>
<polygon fill="black" stroke="black" points="523.704,-312.127 534.298,-311.988 525.93,-305.49 523.704,-312.127"/>
</g>
<!-- OFFSET_FROM_BIT -->
<g id="node12" class="node"><title>OFFSET_FROM_BIT</title>
<polygon fill="Wheat" stroke="black" points="669.5,-294 508.5,-294 508.5,-258 669.5,-258 669.5,-294"/>
<text text-anchor="middle" x="589" y="-272.2" font-family="Times,serif" font-size="16.00" fill="blue">OFFSET_FROM_BIT</text>
</g>
<!-- set_frame &#45;&gt;OFFSET_FROM_BIT -->
<g id="edge14" class="edge"><title>set_frame &#45;&gt;OFFSET_FROM_BIT</title>
<path fill="none" stroke="black" d="M467.627,-276C477.087,-276 487.529,-276 498.192,-276"/>
<polygon fill="black" stroke="black" points="498.458,-279.5 508.458,-276 498.458,-272.5 498.458,-279.5"/>
</g>
<!-- page_fault &#45;&gt;printf -->
<g id="edge17" class="edge"><title>page_fault &#45;&gt;printf</title>
<path fill="none" stroke="black" d="M296.132,-134.856C311.777,-139.071 329.225,-144.986 344,-153 365.018,-164.401 385.49,-181.912 400.594,-196.441"/>
<polygon fill="black" stroke="black" points="398.399,-199.191 407.978,-203.718 403.312,-194.206 398.399,-199.191"/>
</g>
<!-- print_hex -->
<g id="node15" class="node"><title>print_hex</title>
<polygon fill="Wheat" stroke="black" points="465.5,-109 386.5,-109 386.5,-73 465.5,-73 465.5,-109"/>
<text text-anchor="middle" x="426" y="-87.2" font-family="Times,serif" font-size="16.00" fill="blue">print_hex</text>
</g>
<!-- page_fault &#45;&gt;print_hex -->
<g id="edge18" class="edge"><title>page_fault &#45;&gt;print_hex</title>
<path fill="none" stroke="black" d="M296.403,-117.168C320.719,-112.22 351.113,-106.035 376.247,-100.921"/>
<polygon fill="black" stroke="black" points="377.205,-104.298 386.306,-98.8738 375.809,-97.4382 377.205,-104.298"/>
</g>
<!-- PANIC -->
<g id="node16" class="node"><title>PANIC</title>
<polygon fill="Wheat" stroke="black" points="458,-163 394,-163 394,-127 458,-127 458,-163"/>
<text text-anchor="middle" x="426" y="-141.2" font-family="Times,serif" font-size="16.00" fill="blue">PANIC</text>
</g>
<!-- page_fault &#45;&gt;PANIC -->
<g id="edge19" class="edge"><title>page_fault &#45;&gt;PANIC</title>
<path fill="none" stroke="black" d="M296.403,-130.795C323.199,-133.755 357.377,-137.53 383.761,-140.445"/>
<polygon fill="black" stroke="black" points="383.497,-143.937 393.821,-141.556 384.266,-136.979 383.497,-143.937"/>
</g>
</g>
</svg>
