<?xml version="1.0" encoding="UTF-8" standalone="no"?>
<!DOCTYPE svg PUBLIC "-//W3C//DTD SVG 1.1//EN"
 "http://www.w3.org/Graphics/SVG/1.1/DTD/svg11.dtd">
<!-- Generated by graphviz version 2.36.0 (20140111.2315)
 -->
<!-- Title: G Pages: 1 -->
<svg width="694pt" height="258pt"
 viewBox="0.00 0.00 694.00 258.16" xmlns="http://www.w3.org/2000/svg" xmlns:xlink="http://www.w3.org/1999/xlink">
<g id="graph0" class="graph" transform="scale(1 1) rotate(0) translate(4 254.157)">
<title>G</title>
<polygon fill="white" stroke="none" points="-4,4 -4,-254.157 690,-254.157 690,4 -4,4"/>
<!-- kmalloc -->
<g id="node1" class="node"><title>kmalloc</title>
<polygon fill="Wheat" stroke="black" points="68,-67.1567 0,-67.1567 0,-31.1567 68,-31.1567 68,-67.1567"/>
<text text-anchor="middle" x="34" y="-45.3567" font-family="Times,serif" font-size="16.00" fill="blue">kmalloc</text>
</g>
<!-- kmalloc_int  -->
<g id="node2" class="node"><title>kmalloc_int </title>
<polygon fill="Wheat" stroke="black" points="202,-67.1567 104,-67.1567 104,-31.1567 202,-31.1567 202,-67.1567"/>
<text text-anchor="middle" x="153" y="-45.3567" font-family="Times,serif" font-size="16.00" fill="blue">kmalloc_int </text>
</g>
<!-- kmalloc&#45;&gt;kmalloc_int  -->
<g id="edge1" class="edge"><title>kmalloc&#45;&gt;kmalloc_int </title>
<path fill="none" stroke="black" d="M68.2145,-49.1567C76.1781,-49.1567 84.9157,-49.1567 93.649,-49.1567"/>
<polygon fill="black" stroke="black" points="93.8524,-52.6568 103.852,-49.1567 93.8523,-45.6568 93.8524,-52.6568"/>
</g>
<!-- alloc  -->
<g id="node3" class="node"><title>alloc </title>
<polygon fill="Wheat" stroke="black" points="292,-131.157 238,-131.157 238,-95.1567 292,-95.1567 292,-131.157"/>
<text text-anchor="middle" x="265" y="-109.357" font-family="Times,serif" font-size="16.00" fill="blue">alloc </text>
</g>
<!-- kmalloc_int &#45;&gt;alloc  -->
<g id="edge2" class="edge"><title>kmalloc_int &#45;&gt;alloc </title>
<path fill="none" stroke="black" d="M185.227,-67.3254C198.879,-75.2679 214.949,-84.6181 229.003,-92.7947"/>
<polygon fill="black" stroke="black" points="227.497,-95.9681 237.901,-97.9719 231.018,-89.9177 227.497,-95.9681"/>
</g>
<!-- get_page -->
<g id="node9" class="node"><title>get_page</title>
<polygon fill="Wheat" stroke="black" points="643,-36.1567 569,-36.1567 569,-0.156713 643,-0.156713 643,-36.1567"/>
<text text-anchor="middle" x="606" y="-14.3567" font-family="Times,serif" font-size="16.00" fill="blue">get_page</text>
</g>
<!-- kmalloc_int &#45;&gt;get_page -->
<g id="edge13" class="edge"><title>kmalloc_int &#45;&gt;get_page</title>
<path fill="none" stroke="black" d="M202.137,-33.5605C236.731,-23.1992 284.711,-10.5452 328,-5.15671 399.449,3.73704 418.114,-1.10649 490,-5.15671 512.756,-6.43885 537.926,-9.13729 558.901,-11.7451"/>
<polygon fill="black" stroke="black" points="558.47,-15.2184 568.833,-13.0114 559.356,-8.27461 558.47,-15.2184"/>
</g>
<!-- alloc &#45;&gt;alloc  -->
<g id="edge11" class="edge"><title>alloc &#45;&gt;alloc </title>
<path fill="none" stroke="black" d="M244.738,-131.309C241.621,-140.696 248.375,-149.157 265,-149.157 275.131,-149.157 281.596,-146.015 284.396,-141.436"/>
<polygon fill="black" stroke="black" points="287.897,-141.571 285.262,-131.309 280.923,-140.975 287.897,-141.571"/>
</g>
<!-- find_smallest_hole  -->
<g id="node4" class="node"><title>find_smallest_hole </title>
<polygon fill="Wheat" stroke="black" points="480.5,-250.157 337.5,-250.157 337.5,-214.157 480.5,-214.157 480.5,-250.157"/>
<text text-anchor="middle" x="409" y="-228.357" font-family="Times,serif" font-size="16.00" fill="blue">find_smallest_hole </text>
</g>
<!-- alloc &#45;&gt;find_smallest_hole  -->
<g id="edge3" class="edge"><title>alloc &#45;&gt;find_smallest_hole </title>
<path fill="none" stroke="black" d="M275.001,-131.507C285.366,-150.943 304.084,-181.362 328,-200.157 332.264,-203.507 336.924,-206.551 341.783,-209.307"/>
<polygon fill="black" stroke="black" points="340.216,-212.437 350.701,-213.961 343.455,-206.231 340.216,-212.437"/>
</g>
<!-- lookup_ordered_array -->
<g id="node5" class="node"><title>lookup_ordered_array</title>
<polygon fill="Wheat" stroke="black" points="686,-240.157 526,-240.157 526,-204.157 686,-204.157 686,-240.157"/>
<text text-anchor="middle" x="606" y="-218.357" font-family="Times,serif" font-size="16.00" fill="blue">lookup_ordered_array</text>
</g>
<!-- alloc &#45;&gt;lookup_ordered_array -->
<g id="edge9" class="edge"><title>alloc &#45;&gt;lookup_ordered_array</title>
<path fill="none" stroke="black" d="M281.853,-131.207C293.441,-143.246 310.189,-158.415 328,-167.157 344.928,-175.465 441.546,-193.65 515.961,-206.841"/>
<polygon fill="black" stroke="black" points="515.384,-210.293 525.841,-208.586 516.602,-203.4 515.384,-210.293"/>
</g>
<!-- expand  -->
<g id="node6" class="node"><title>expand </title>
<polygon fill="Wheat" stroke="black" points="442.5,-158.157 375.5,-158.157 375.5,-122.157 442.5,-122.157 442.5,-158.157"/>
<text text-anchor="middle" x="409" y="-136.357" font-family="Times,serif" font-size="16.00" fill="blue">expand </text>
</g>
<!-- alloc &#45;&gt;expand  -->
<g id="edge5" class="edge"><title>alloc &#45;&gt;expand </title>
<path fill="none" stroke="black" d="M292.045,-118.109C312.572,-122.012 341.616,-127.534 365.5,-132.076"/>
<polygon fill="black" stroke="black" points="364.903,-135.525 375.381,-133.954 366.21,-128.648 364.903,-135.525"/>
</g>
<!-- insert_ordered_array -->
<g id="node10" class="node"><title>insert_ordered_array</title>
<polygon fill="Wheat" stroke="black" points="483.5,-104.157 334.5,-104.157 334.5,-68.1567 483.5,-68.1567 483.5,-104.157"/>
<text text-anchor="middle" x="409" y="-82.3567" font-family="Times,serif" font-size="16.00" fill="blue">insert_ordered_array</text>
</g>
<!-- alloc &#45;&gt;insert_ordered_array -->
<g id="edge10" class="edge"><title>alloc &#45;&gt;insert_ordered_array</title>
<path fill="none" stroke="black" d="M292.045,-108.204C301.49,-106.409 312.739,-104.27 324.458,-102.041"/>
<polygon fill="black" stroke="black" points="325.214,-105.461 334.384,-100.154 323.906,-98.5837 325.214,-105.461"/>
</g>
<!-- remove_ordered_array -->
<g id="node11" class="node"><title>remove_ordered_array</title>
<polygon fill="Wheat" stroke="black" points="490,-50.1567 328,-50.1567 328,-14.1567 490,-14.1567 490,-50.1567"/>
<text text-anchor="middle" x="409" y="-28.3567" font-family="Times,serif" font-size="16.00" fill="blue">remove_ordered_array</text>
</g>
<!-- alloc &#45;&gt;remove_ordered_array -->
<g id="edge12" class="edge"><title>alloc &#45;&gt;remove_ordered_array</title>
<path fill="none" stroke="black" d="M282.999,-95.0543C294.717,-83.456 311.163,-68.8197 328,-59.1567 330.861,-57.515 333.836,-55.9533 336.885,-54.4702"/>
<polygon fill="black" stroke="black" points="338.536,-57.5646 346.206,-50.2555 335.653,-51.1863 338.536,-57.5646"/>
</g>
<!-- find_smallest_hole &#45;&gt;lookup_ordered_array -->
<g id="edge4" class="edge"><title>find_smallest_hole &#45;&gt;lookup_ordered_array</title>
<path fill="none" stroke="black" d="M480.675,-228.532C492.056,-227.949 503.965,-227.338 515.714,-226.735"/>
<polygon fill="black" stroke="black" points="516.173,-230.217 525.981,-226.209 515.815,-223.226 516.173,-230.217"/>
</g>
<!-- ASSERT -->
<g id="node7" class="node"><title>ASSERT</title>
<polygon fill="Wheat" stroke="black" points="644,-167.157 568,-167.157 568,-131.157 644,-131.157 644,-167.157"/>
<text text-anchor="middle" x="606" y="-145.357" font-family="Times,serif" font-size="16.00" fill="blue">ASSERT</text>
</g>
<!-- expand &#45;&gt;ASSERT -->
<g id="edge6" class="edge"><title>expand &#45;&gt;ASSERT</title>
<path fill="none" stroke="black" d="M442.639,-141.663C474.118,-143.116 522.105,-145.331 557.756,-146.976"/>
<polygon fill="black" stroke="black" points="557.774,-150.481 567.925,-147.446 558.097,-143.488 557.774,-150.481"/>
</g>
<!-- alloc_frame -->
<g id="node8" class="node"><title>alloc_frame</title>
<polygon fill="Wheat" stroke="black" points="652,-113.157 560,-113.157 560,-77.1567 652,-77.1567 652,-113.157"/>
<text text-anchor="middle" x="606" y="-91.3567" font-family="Times,serif" font-size="16.00" fill="blue">alloc_frame</text>
</g>
<!-- expand &#45;&gt;alloc_frame -->
<g id="edge7" class="edge"><title>expand &#45;&gt;alloc_frame</title>
<path fill="none" stroke="black" d="M442.639,-132.625C471.848,-125.884 515.271,-115.863 549.863,-107.881"/>
<polygon fill="black" stroke="black" points="550.87,-111.24 559.827,-105.581 549.296,-104.42 550.87,-111.24"/>
</g>
<!-- expand &#45;&gt;get_page -->
<g id="edge8" class="edge"><title>expand &#45;&gt;get_page</title>
<path fill="none" stroke="black" d="M442.717,-133.62C458.033,-129.478 475.95,-122.993 490,-113.157 510.982,-98.4679 506.917,-85.24 526,-68.1567 536.899,-58.3996 549.916,-49.3155 562.208,-41.6398"/>
<polygon fill="black" stroke="black" points="564.256,-44.4905 570.989,-36.3102 560.625,-38.5064 564.256,-44.4905"/>
</g>
</g>
</svg>
